<svg width="159" height="42" viewBox="0 0 159 42" fill="none" xmlns="http://www.w3.org/2000/svg">
<rect width="159" height="42" rx="4" fill="#F9F9F9"/>
<path d="M55.5652 26L59.1772 16.2H60.8012L64.3852 26H62.8172L61.9772 23.606H57.9732L57.1332 26H55.5652ZM58.3932 22.43H61.5572L59.9752 17.964L58.3932 22.43ZM68.7303 26.168C68.049 26.168 67.4377 26.014 66.8963 25.706C66.3643 25.398 65.9443 24.9733 65.6363 24.432C65.3377 23.8813 65.1883 23.2467 65.1883 22.528C65.1883 21.8093 65.3377 21.1793 65.6363 20.638C65.9443 20.0873 66.3643 19.658 66.8963 19.35C67.4377 19.042 68.049 18.888 68.7303 18.888C69.589 18.888 70.3077 19.112 70.8863 19.56C71.4743 20.008 71.8523 20.6147 72.0203 21.38H70.4663C70.373 20.9973 70.1677 20.6987 69.8503 20.484C69.533 20.2693 69.1597 20.162 68.7303 20.162C68.3663 20.162 68.0303 20.2553 67.7223 20.442C67.4143 20.6193 67.167 20.8853 66.9803 21.24C66.7937 21.5853 66.7003 22.0147 66.7003 22.528C66.7003 23.0413 66.7937 23.4753 66.9803 23.83C67.167 24.1753 67.4143 24.4413 67.7223 24.628C68.0303 24.8147 68.3663 24.908 68.7303 24.908C69.1597 24.908 69.533 24.8007 69.8503 24.586C70.1677 24.3713 70.373 24.068 70.4663 23.676H72.0203C71.8617 24.4227 71.4883 25.0247 70.9003 25.482C70.3123 25.9393 69.589 26.168 68.7303 26.168ZM77.0198 26.168C76.3385 26.168 75.7271 26.014 75.1858 25.706C74.6538 25.398 74.2338 24.9733 73.9258 24.432C73.6271 23.8813 73.4778 23.2467 73.4778 22.528C73.4778 21.8093 73.6271 21.1793 73.9258 20.638C74.2338 20.0873 74.6538 19.658 75.1858 19.35C75.7271 19.042 76.3385 18.888 77.0198 18.888C77.8785 18.888 78.5971 19.112 79.1758 19.56C79.7638 20.008 80.1418 20.6147 80.3098 21.38H78.7558C78.6625 20.9973 78.4571 20.6987 78.1398 20.484C77.8225 20.2693 77.4491 20.162 77.0198 20.162C76.6558 20.162 76.3198 20.2553 76.0118 20.442C75.7038 20.6193 75.4565 20.8853 75.2698 21.24C75.0831 21.5853 74.9898 22.0147 74.9898 22.528C74.9898 23.0413 75.0831 23.4753 75.2698 23.83C75.4565 24.1753 75.7038 24.4413 76.0118 24.628C76.3198 24.8147 76.6558 24.908 77.0198 24.908C77.4491 24.908 77.8225 24.8007 78.1398 24.586C78.4571 24.3713 78.6625 24.068 78.7558 23.676H80.3098C80.1511 24.4227 79.7778 25.0247 79.1898 25.482C78.6018 25.9393 77.8785 26.168 77.0198 26.168ZM85.2672 26.168C84.5859 26.168 83.9792 26.0187 83.4472 25.72C82.9246 25.412 82.5139 24.9873 82.2152 24.446C81.9166 23.9047 81.7672 23.2747 81.7672 22.556C81.7672 21.828 81.9119 21.1887 82.2012 20.638C82.4999 20.0873 82.9106 19.658 83.4332 19.35C83.9652 19.042 84.5812 18.888 85.2812 18.888C85.9626 18.888 86.5552 19.042 87.0592 19.35C87.5632 19.6487 87.9552 20.05 88.2352 20.554C88.5152 21.058 88.6552 21.6133 88.6552 22.22C88.6552 22.3133 88.6506 22.416 88.6412 22.528C88.6412 22.6307 88.6366 22.7473 88.6272 22.878H83.2232C83.2699 23.55 83.4892 24.0633 83.8812 24.418C84.2826 24.7633 84.7446 24.936 85.2672 24.936C85.6872 24.936 86.0372 24.8427 86.3172 24.656C86.6066 24.46 86.8212 24.1987 86.9612 23.872H88.4452C88.2586 24.5253 87.8852 25.0713 87.3252 25.51C86.7746 25.9487 86.0886 26.168 85.2672 26.168ZM85.2672 20.106C84.7726 20.106 84.3339 20.2553 83.9512 20.554C83.5686 20.8433 83.3352 21.282 83.2512 21.87H87.1712C87.1432 21.3287 86.9519 20.8993 86.5972 20.582C86.2426 20.2647 85.7992 20.106 85.2672 20.106ZM90.295 29.08V19.056H91.625L91.779 20.134C92.003 19.8073 92.311 19.518 92.703 19.266C93.095 19.014 93.599 18.888 94.215 18.888C94.887 18.888 95.4797 19.0467 95.993 19.364C96.5064 19.6813 96.9077 20.1153 97.197 20.666C97.4957 21.2167 97.645 21.842 97.645 22.542C97.645 23.242 97.4957 23.8673 97.197 24.418C96.9077 24.9593 96.5064 25.3887 95.993 25.706C95.4797 26.014 94.8824 26.168 94.201 26.168C93.6597 26.168 93.179 26.0607 92.759 25.846C92.3484 25.6313 92.0217 25.328 91.779 24.936V29.08H90.295ZM93.949 24.88C94.5837 24.88 95.1064 24.6653 95.517 24.236C95.9277 23.7973 96.133 23.228 96.133 22.528C96.133 22.0707 96.0397 21.6647 95.853 21.31C95.6664 20.9553 95.4097 20.68 95.083 20.484C94.7564 20.2787 94.3784 20.176 93.949 20.176C93.3144 20.176 92.7917 20.3953 92.381 20.834C91.9797 21.2727 91.779 21.8373 91.779 22.528C91.779 23.228 91.9797 23.7973 92.381 24.236C92.7917 24.6653 93.3144 24.88 93.949 24.88ZM101.989 26C101.307 26 100.766 25.8367 100.365 25.51C99.9633 25.174 99.7627 24.5813 99.7627 23.732V20.302H98.5727V19.056H99.7627L99.9447 17.292H101.247V19.056H103.207V20.302H101.247V23.732C101.247 24.1147 101.326 24.3807 101.485 24.53C101.653 24.67 101.937 24.74 102.339 24.74H103.137V26H101.989Z" fill="#212121"/>
</svg>
