<svg width="48" height="48" viewBox="0 0 48 48" fill="none" xmlns="http://www.w3.org/2000/svg">
<rect width="48" height="48" rx="24" fill="#F2F2F2"/>
<path d="M15.3363 29L18.9483 19.2H20.5723L24.1563 29H22.5883L21.7483 26.606H17.7443L16.9043 29H15.3363ZM18.1643 25.43H21.3283L19.7463 20.964L18.1643 25.43ZM25.7229 29V19.2H29.1529C29.9182 19.2 30.5529 19.3307 31.0569 19.592C31.5609 19.844 31.9342 20.194 32.1769 20.642C32.4289 21.0807 32.5549 21.58 32.5549 22.14C32.5549 22.672 32.4336 23.162 32.1909 23.61C31.9576 24.0487 31.5889 24.3987 31.0849 24.66C30.5809 24.9213 29.9369 25.052 29.1529 25.052H27.2069V29H25.7229ZM27.2069 23.834H29.0829C29.7829 23.834 30.2822 23.6847 30.5809 23.386C30.8889 23.078 31.0429 22.6627 31.0429 22.14C31.0429 21.5987 30.8889 21.1787 30.5809 20.88C30.2822 20.572 29.7829 20.418 29.0829 20.418H27.2069V23.834Z" fill="#818181"/>
</svg>
