<svg width="15" height="16" viewBox="0 0 15 16" fill="none" xmlns="http://www.w3.org/2000/svg">
<path d="M12.1152 5.2492C12.1152 4.12224 11.6675 3.04144 10.8706 2.24456C10.0737 1.44768 8.99295 1 7.86599 1C6.73903 1 5.65823 1.44768 4.86135 2.24456C4.06447 3.04144 3.61679 4.12224 3.61679 5.2492C3.61679 10.2066 1.49219 11.623 1.49219 11.623H14.2398C14.2398 11.623 12.1152 10.2066 12.1152 5.2492Z" stroke="#212121" stroke-width="1.27476" stroke-linecap="round" stroke-linejoin="round"/>
<path d="M9.09145 14.4551C8.96692 14.6698 8.78818 14.848 8.57311 14.9718C8.35805 15.0957 8.11422 15.1609 7.86604 15.1609C7.61785 15.1609 7.37402 15.0957 7.15896 14.9718C6.9439 14.848 6.76516 14.6698 6.64062 14.4551" stroke="#212121" stroke-width="1.27476" stroke-linecap="round" stroke-linejoin="round"/>
</svg>
