<svg width="14" height="16" viewBox="0 0 14 16" fill="none" xmlns="http://www.w3.org/2000/svg">
<path d="M1 3.66602H2.33333H13" stroke="#212121" stroke-width="1.5" stroke-linecap="round" stroke-linejoin="round"/>
<path d="M4.3335 3.66667V2.33333C4.3335 1.97971 4.47397 1.64057 4.72402 1.39052C4.97407 1.14048 5.31321 1 5.66683 1H8.3335C8.68712 1 9.02626 1.14048 9.27631 1.39052C9.52635 1.64057 9.66683 1.97971 9.66683 2.33333V3.66667M11.6668 3.66667V13C11.6668 13.3536 11.5264 13.6928 11.2763 13.9428C11.0263 14.1929 10.6871 14.3333 10.3335 14.3333H3.66683C3.31321 14.3333 2.97407 14.1929 2.72402 13.9428C2.47397 13.6928 2.3335 13.3536 2.3335 13V3.66667H11.6668Z" stroke="#212121" stroke-width="1.5" stroke-linecap="round" stroke-linejoin="round"/>
<path d="M5.6665 7V11" stroke="#212121" stroke-width="1.5" stroke-linecap="round" stroke-linejoin="round"/>
<path d="M8.3335 7V11" stroke="#212121" stroke-width="1.5" stroke-linecap="round" stroke-linejoin="round"/>
</svg>
