<svg width="56" height="38" viewBox="0 0 56 38" fill="none" xmlns="http://www.w3.org/2000/svg">
<path d="M6.26842 34.0092C5.43642 34.0092 4.71642 33.8292 4.10842 33.4692C3.50842 33.1012 3.04442 32.5932 2.71642 31.9452C2.38842 31.2892 2.22442 30.5332 2.22442 29.6772C2.22442 28.8132 2.38842 28.0572 2.71642 27.4092C3.04442 26.7532 3.50842 26.2412 4.10842 25.8732C4.71642 25.5052 5.43642 25.3212 6.26842 25.3212C7.25242 25.3212 8.05642 25.5612 8.68042 26.0412C9.30443 26.5212 9.70042 27.1932 9.86842 28.0572H8.45242C8.34042 27.5692 8.10042 27.1812 7.73242 26.8932C7.36442 26.6052 6.87242 26.4612 6.25642 26.4612C5.41642 26.4612 4.75242 26.7492 4.26442 27.3252C3.77642 27.8932 3.53242 28.6772 3.53242 29.6772C3.53242 30.6692 3.77642 31.4492 4.26442 32.0172C4.75242 32.5852 5.41642 32.8692 6.25642 32.8692C6.87242 32.8692 7.36442 32.7332 7.73242 32.4612C8.10042 32.1892 8.34042 31.8172 8.45242 31.3452H9.86842C9.70042 32.1772 9.30443 32.8292 8.68042 33.3012C8.05642 33.7732 7.25242 34.0092 6.26842 34.0092ZM13.4094 34.0092C12.9054 34.0092 12.4894 33.9252 12.1614 33.7572C11.8334 33.5892 11.5894 33.3692 11.4294 33.0972C11.2694 32.8172 11.1894 32.5132 11.1894 32.1852C11.1894 31.6092 11.4134 31.1532 11.8614 30.8172C12.3094 30.4812 12.9494 30.3132 13.7814 30.3132H15.3414V30.2052C15.3414 29.7412 15.2134 29.3932 14.9574 29.1612C14.7094 28.9292 14.3854 28.8132 13.9854 28.8132C13.6334 28.8132 13.3254 28.9012 13.0614 29.0772C12.8054 29.2452 12.6494 29.4972 12.5934 29.8332H11.3214C11.3614 29.4012 11.5054 29.0332 11.7534 28.7292C12.0094 28.4172 12.3294 28.1812 12.7134 28.0212C13.1054 27.8532 13.5334 27.7692 13.9974 27.7692C14.8294 27.7692 15.4734 27.9892 15.9294 28.4292C16.3854 28.8612 16.6134 29.4532 16.6134 30.2052V33.8652H15.5094L15.4014 32.8452C15.2334 33.1732 14.9894 33.4492 14.6694 33.6732C14.3494 33.8972 13.9294 34.0092 13.4094 34.0092ZM13.6614 32.9772C14.0054 32.9772 14.2934 32.8972 14.5254 32.7372C14.7654 32.5692 14.9494 32.3492 15.0774 32.0772C15.2134 31.8052 15.2974 31.5052 15.3294 31.1772H13.9134C13.4094 31.1772 13.0494 31.2652 12.8334 31.4412C12.6254 31.6172 12.5214 31.8372 12.5214 32.1012C12.5214 32.3732 12.6214 32.5892 12.8214 32.7492C13.0294 32.9012 13.3094 32.9772 13.6614 32.9772ZM18.2712 33.8652V25.2252H19.5432V33.8652H18.2712ZM24.1128 34.0092C23.5288 34.0092 23.0088 33.8812 22.5528 33.6252C22.1048 33.3612 21.7528 32.9972 21.4968 32.5332C21.2408 32.0692 21.1128 31.5292 21.1128 30.9132C21.1128 30.2892 21.2368 29.7412 21.4848 29.2692C21.7408 28.7972 22.0928 28.4292 22.5408 28.1652C22.9968 27.9012 23.5248 27.7692 24.1248 27.7692C24.7088 27.7692 25.2168 27.9012 25.6488 28.1652C26.0808 28.4212 26.4168 28.7652 26.6568 29.1972C26.8968 29.6292 27.0168 30.1052 27.0168 30.6252C27.0168 30.7052 27.0128 30.7932 27.0048 30.8892C27.0048 30.9772 27.0008 31.0772 26.9928 31.1892H22.3608C22.4008 31.7652 22.5888 32.2052 22.9248 32.5092C23.2688 32.8052 23.6648 32.9532 24.1128 32.9532C24.4728 32.9532 24.7728 32.8732 25.0128 32.7132C25.2608 32.5452 25.4448 32.3212 25.5648 32.0412H26.8368C26.6768 32.6012 26.3568 33.0692 25.8768 33.4452C25.4048 33.8212 24.8168 34.0092 24.1128 34.0092ZM24.1128 28.8132C23.6888 28.8132 23.3128 28.9412 22.9848 29.1972C22.6568 29.4452 22.4568 29.8212 22.3848 30.3252H25.7448C25.7208 29.8612 25.5568 29.4932 25.2528 29.2212C24.9488 28.9492 24.5688 28.8132 24.1128 28.8132ZM28.5114 33.8652V27.9132H29.6394L29.7354 28.9572C29.9194 28.5892 30.1874 28.3012 30.5394 28.0932C30.8994 27.8772 31.3114 27.7692 31.7754 27.7692C32.4954 27.7692 33.0594 27.9932 33.4674 28.4412C33.8834 28.8892 34.0914 29.5572 34.0914 30.4452V33.8652H32.8314V30.5772C32.8314 29.4252 32.3594 28.8492 31.4154 28.8492C30.9434 28.8492 30.5514 29.0172 30.2394 29.3532C29.9354 29.6892 29.7834 30.1692 29.7834 30.7932V33.8652H28.5114ZM38.4762 34.0092C37.9002 34.0092 37.3922 33.8732 36.9522 33.6012C36.5122 33.3292 36.1682 32.9572 35.9202 32.4852C35.6722 32.0132 35.5482 31.4772 35.5482 30.8772C35.5482 30.2772 35.6722 29.7452 35.9202 29.2812C36.1682 28.8092 36.5122 28.4412 36.9522 28.1772C37.4002 27.9052 37.9122 27.7692 38.4882 27.7692C38.9602 27.7692 39.3722 27.8612 39.7242 28.0452C40.0842 28.2292 40.3642 28.4892 40.5642 28.8252V25.2252H41.8362V33.8652H40.6962L40.5642 32.9412C40.3722 33.2212 40.1082 33.4692 39.7722 33.6852C39.4362 33.9012 39.0042 34.0092 38.4762 34.0092ZM38.7042 32.9052C39.2482 32.9052 39.6922 32.7172 40.0362 32.3412C40.3882 31.9652 40.5642 31.4812 40.5642 30.8892C40.5642 30.2892 40.3882 29.8052 40.0362 29.4372C39.6922 29.0612 39.2482 28.8732 38.7042 28.8732C38.1602 28.8732 37.7122 29.0612 37.3602 29.4372C37.0082 29.8052 36.8322 30.2892 36.8322 30.8892C36.8322 31.2812 36.9122 31.6292 37.0722 31.9332C37.2322 32.2372 37.4522 32.4772 37.7322 32.6532C38.0202 32.8212 38.3442 32.9052 38.7042 32.9052ZM45.6308 34.0092C45.1268 34.0092 44.7108 33.9252 44.3828 33.7572C44.0548 33.5892 43.8108 33.3692 43.6508 33.0972C43.4908 32.8172 43.4108 32.5132 43.4108 32.1852C43.4108 31.6092 43.6348 31.1532 44.0828 30.8172C44.5308 30.4812 45.1708 30.3132 46.0028 30.3132H47.5628V30.2052C47.5628 29.7412 47.4348 29.3932 47.1788 29.1612C46.9308 28.9292 46.6068 28.8132 46.2068 28.8132C45.8548 28.8132 45.5468 28.9012 45.2828 29.0772C45.0268 29.2452 44.8708 29.4972 44.8148 29.8332H43.5428C43.5828 29.4012 43.7268 29.0332 43.9748 28.7292C44.2308 28.4172 44.5508 28.1812 44.9348 28.0212C45.3268 27.8532 45.7548 27.7692 46.2188 27.7692C47.0508 27.7692 47.6948 27.9892 48.1508 28.4292C48.6068 28.8612 48.8348 29.4532 48.8348 30.2052V33.8652H47.7308L47.6228 32.8452C47.4548 33.1732 47.2108 33.4492 46.8908 33.6732C46.5708 33.8972 46.1508 34.0092 45.6308 34.0092ZM45.8828 32.9772C46.2268 32.9772 46.5148 32.8972 46.7468 32.7372C46.9868 32.5692 47.1708 32.3492 47.2988 32.0772C47.4348 31.8052 47.5188 31.5052 47.5508 31.1772H46.1348C45.6308 31.1772 45.2708 31.2652 45.0548 31.4412C44.8468 31.6172 44.7428 31.8372 44.7428 32.1012C44.7428 32.3732 44.8428 32.5892 45.0428 32.7492C45.2508 32.9012 45.5308 32.9772 45.8828 32.9772ZM50.4926 33.8652V27.9132H51.6326L51.7406 29.0412C51.9486 28.6492 52.2366 28.3412 52.6046 28.1172C52.9806 27.8852 53.4326 27.7692 53.9606 27.7692V29.1012H53.6126C53.2606 29.1012 52.9446 29.1612 52.6646 29.2812C52.3926 29.3932 52.1726 29.5892 52.0046 29.8692C51.8446 30.1412 51.7646 30.5212 51.7646 31.0092V33.8652H50.4926Z" fill="#212121"/>
<path d="M34.601 1.14746H22.3686C21.4035 1.14746 20.6211 1.92984 20.6211 2.89495V15.1274C20.6211 16.0925 21.4035 16.8749 22.3686 16.8749H34.601C35.5661 16.8749 36.3485 16.0925 36.3485 15.1274V2.89495C36.3485 1.92984 35.5661 1.14746 34.601 1.14746Z" stroke="#212121" stroke-width="1.31062" stroke-linecap="round" stroke-linejoin="round"/>
<path d="M20.6211 6.39062H36.3485" stroke="#212121" stroke-width="1.31062" stroke-linecap="round" stroke-linejoin="round"/>
<path d="M25.8633 16.8756V6.39062" stroke="#212121" stroke-width="1.31062" stroke-linecap="round" stroke-linejoin="round"/>
</svg>
