<svg width="159" height="42" viewBox="0 0 159 42" fill="none" xmlns="http://www.w3.org/2000/svg">
<rect width="159" height="42" rx="4" fill="#F9F9F9"/>
<path d="M55.4206 26V16.2H58.5986C59.7466 16.2 60.6892 16.4007 61.4266 16.802C62.1732 17.2033 62.7239 17.7727 63.0786 18.51C63.4426 19.238 63.6246 20.106 63.6246 21.114C63.6246 22.1127 63.4426 22.9807 63.0786 23.718C62.7239 24.446 62.1732 25.0107 61.4266 25.412C60.6892 25.804 59.7466 26 58.5986 26H55.4206ZM56.9046 24.74H58.5426C59.4292 24.74 60.1292 24.5953 60.6426 24.306C61.1652 24.0167 61.5386 23.6013 61.7626 23.06C61.9959 22.5187 62.1126 21.87 62.1126 21.114C62.1126 20.358 61.9959 19.7047 61.7626 19.154C61.5386 18.6033 61.1652 18.1833 60.6426 17.894C60.1292 17.5953 59.4292 17.446 58.5426 17.446H56.9046V24.74ZM68.5563 26.168C67.875 26.168 67.2683 26.0187 66.7363 25.72C66.2136 25.412 65.803 24.9873 65.5043 24.446C65.2056 23.9047 65.0563 23.2747 65.0563 22.556C65.0563 21.828 65.201 21.1887 65.4903 20.638C65.789 20.0873 66.1996 19.658 66.7223 19.35C67.2543 19.042 67.8703 18.888 68.5703 18.888C69.2516 18.888 69.8443 19.042 70.3483 19.35C70.8523 19.6487 71.2443 20.05 71.5243 20.554C71.8043 21.058 71.9443 21.6133 71.9443 22.22C71.9443 22.3133 71.9396 22.416 71.9303 22.528C71.9303 22.6307 71.9256 22.7473 71.9163 22.878H66.5123C66.559 23.55 66.7783 24.0633 67.1703 24.418C67.5716 24.7633 68.0336 24.936 68.5563 24.936C68.9763 24.936 69.3263 24.8427 69.6063 24.656C69.8956 24.46 70.1103 24.1987 70.2503 23.872H71.7343C71.5476 24.5253 71.1743 25.0713 70.6143 25.51C70.0636 25.9487 69.3776 26.168 68.5563 26.168ZM68.5563 20.106C68.0616 20.106 67.623 20.2553 67.2403 20.554C66.8576 20.8433 66.6243 21.282 66.5403 21.87H70.4603C70.4323 21.3287 70.241 20.8993 69.8863 20.582C69.5316 20.2647 69.0883 20.106 68.5563 20.106ZM76.8741 26.168C76.1928 26.168 75.5814 26.014 75.0401 25.706C74.5081 25.398 74.0881 24.9733 73.7801 24.432C73.4814 23.8813 73.3321 23.2467 73.3321 22.528C73.3321 21.8093 73.4814 21.1793 73.7801 20.638C74.0881 20.0873 74.5081 19.658 75.0401 19.35C75.5814 19.042 76.1928 18.888 76.8741 18.888C77.7328 18.888 78.4514 19.112 79.0301 19.56C79.6181 20.008 79.9961 20.6147 80.1641 21.38H78.6101C78.5168 20.9973 78.3114 20.6987 77.9941 20.484C77.6768 20.2693 77.3034 20.162 76.8741 20.162C76.5101 20.162 76.1741 20.2553 75.8661 20.442C75.5581 20.6193 75.3108 20.8853 75.1241 21.24C74.9374 21.5853 74.8441 22.0147 74.8441 22.528C74.8441 23.0413 74.9374 23.4753 75.1241 23.83C75.3108 24.1753 75.5581 24.4413 75.8661 24.628C76.1741 24.8147 76.5101 24.908 76.8741 24.908C77.3034 24.908 77.6768 24.8007 77.9941 24.586C78.3114 24.3713 78.5168 24.068 78.6101 23.676H80.1641C80.0054 24.4227 79.6321 25.0247 79.0441 25.482C78.4561 25.9393 77.7328 26.168 76.8741 26.168ZM81.8735 26V15.92H83.3575V26H81.8735ZM86.1768 17.74C85.8968 17.74 85.6635 17.656 85.4768 17.488C85.2995 17.3107 85.2108 17.0913 85.2108 16.83C85.2108 16.5687 85.2995 16.354 85.4768 16.186C85.6635 16.0087 85.8968 15.92 86.1768 15.92C86.4568 15.92 86.6855 16.0087 86.8628 16.186C87.0495 16.354 87.1428 16.5687 87.1428 16.83C87.1428 17.0913 87.0495 17.3107 86.8628 17.488C86.6855 17.656 86.4568 17.74 86.1768 17.74ZM85.4348 26V19.056H86.9188V26H85.4348ZM88.9778 26V19.056H90.2938L90.4058 20.274C90.6205 19.8447 90.9332 19.5087 91.3438 19.266C91.7638 19.014 92.2445 18.888 92.7858 18.888C93.6258 18.888 94.2838 19.1493 94.7598 19.672C95.2452 20.1947 95.4878 20.974 95.4878 22.01V26H94.0178V22.164C94.0178 20.82 93.4672 20.148 92.3658 20.148C91.8152 20.148 91.3578 20.344 90.9938 20.736C90.6392 21.128 90.4618 21.688 90.4618 22.416V26H88.9778ZM100.584 26.168C99.9023 26.168 99.2957 26.0187 98.7637 25.72C98.241 25.412 97.8303 24.9873 97.5317 24.446C97.233 23.9047 97.0837 23.2747 97.0837 22.556C97.0837 21.828 97.2283 21.1887 97.5177 20.638C97.8163 20.0873 98.227 19.658 98.7497 19.35C99.2817 19.042 99.8977 18.888 100.598 18.888C101.279 18.888 101.872 19.042 102.376 19.35C102.88 19.6487 103.272 20.05 103.552 20.554C103.832 21.058 103.972 21.6133 103.972 22.22C103.972 22.3133 103.967 22.416 103.958 22.528C103.958 22.6307 103.953 22.7473 103.944 22.878H98.5397C98.5863 23.55 98.8057 24.0633 99.1977 24.418C99.599 24.7633 100.061 24.936 100.584 24.936C101.004 24.936 101.354 24.8427 101.634 24.656C101.923 24.46 102.138 24.1987 102.278 23.872H103.762C103.575 24.5253 103.202 25.0713 102.642 25.51C102.091 25.9487 101.405 26.168 100.584 26.168ZM100.584 20.106C100.089 20.106 99.6503 20.2553 99.2677 20.554C98.885 20.8433 98.6517 21.282 98.5677 21.87H102.488C102.46 21.3287 102.268 20.8993 101.914 20.582C101.559 20.2647 101.116 20.106 100.584 20.106Z" fill="#212121"/>
</svg>
