<svg width="14" height="11" viewBox="0 0 14 11" fill="none" xmlns="http://www.w3.org/2000/svg">
<path d="M9.66667 4.15H9.16667C9.16667 4.33763 9.27172 4.50947 9.43871 4.59501C9.60571 4.68056 9.80655 4.6654 9.95882 4.55577L9.66667 4.15ZM13 1.75H13.5C13.5 1.56237 13.395 1.39053 13.228 1.30499C13.061 1.21944 12.8601 1.2346 12.7078 1.34423L13 1.75ZM13 9.25L12.7078 9.65577C12.8601 9.7654 13.061 9.78056 13.228 9.69501C13.395 9.60947 13.5 9.43763 13.5 9.25H13ZM9.66667 6.85L9.95882 6.44423C9.80655 6.3346 9.60571 6.31944 9.43871 6.40499C9.27172 6.49053 9.16667 6.66237 9.16667 6.85H9.66667ZM8.42222 0.5H2.24444V1.5H8.42222V0.5ZM10.1667 2.28571C10.1667 1.31499 9.4009 0.5 8.42222 0.5V1.5C8.81812 1.5 9.16667 1.83627 9.16667 2.28571H10.1667ZM10.1667 4.15V2.28571H9.16667V4.15H10.1667ZM12.7078 1.34423L9.37451 3.74423L9.95882 4.55577L13.2922 2.15577L12.7078 1.34423ZM13.5 9.25V1.75H12.5V9.25H13.5ZM9.37451 7.25577L12.7078 9.65577L13.2922 8.84423L9.95882 6.44423L9.37451 7.25577ZM10.1667 8.71429V6.85H9.16667V8.71429H10.1667ZM8.42222 10.5C9.4009 10.5 10.1667 9.68501 10.1667 8.71429H9.16667C9.16667 9.16373 8.81812 9.5 8.42222 9.5V10.5ZM2.24444 10.5H8.42222V9.5H2.24444V10.5ZM0.5 8.71429C0.5 9.68501 1.26576 10.5 2.24444 10.5V9.5C1.84855 9.5 1.5 9.16373 1.5 8.71429H0.5ZM0.5 2.28571V8.71429H1.5V2.28571H0.5ZM2.24444 0.5C1.26576 0.5 0.5 1.31499 0.5 2.28571H1.5C1.5 1.83627 1.84855 1.5 2.24444 1.5V0.5ZM3.83333 1V10H4.83333V1H3.83333Z" fill="#2962FF"/>
</svg>
