<svg width="20" height="19" viewBox="0 0 20 19" fill="none" xmlns="http://www.w3.org/2000/svg">
<path d="M13.406 13.7543C12.1831 13.0799 10.166 12.1951 8 12.1951C5.83399 12.1951 3.81691 13.0799 2.59399 13.7543C1.80446 14.1897 1.32896 15.0437 1.22424 15.9849L1 18H15L14.7758 15.9849C14.671 15.0437 14.1955 14.1897 13.406 13.7543Z" stroke="#14142B" stroke-width="1.5" stroke-linecap="round" stroke-linejoin="round"/>
<path d="M8 8.46341C9.933 8.46341 11.5 6.79267 11.5 4.73171C11.5 2.67074 9.933 1 8 1C6.067 1 4.5 2.67074 4.5 4.73171C4.5 6.79267 6.067 8.46341 8 8.46341Z" stroke="#14142B" stroke-width="1.5" stroke-linecap="round" stroke-linejoin="round"/>
<path d="M14 9.5H19" stroke="black" stroke-linecap="round"/>
<path d="M16.5 7L16.5 12" stroke="black" stroke-linecap="round"/>
</svg>
