<svg width="75" height="23" viewBox="0 0 75 23" fill="none" xmlns="http://www.w3.org/2000/svg">
<circle cx="11.1497" cy="11.1497" r="11.1497" fill="#FFF8E9"/>
<path d="M8.2994 13.4808L6.97108 8.63107H7.59373L8.6384 12.789L9.82836 8.63107H10.4718L11.6271 12.789L12.6856 8.63107H13.3083L11.9523 13.4739H11.2881L10.1328 9.47511L8.94973 13.4739L8.2994 13.4808Z" fill="#EAAC30"/>
<circle cx="29.3935" cy="11.1497" r="11.1497" fill="#EBECFE"/>
<path d="M25.4978 13.4605V8.13338H26.2436L28.1614 11.8472L30.0639 8.13338H30.8173V13.4605H30.1781V9.27491L28.3973 12.6995H27.9178L26.137 9.28252V13.4605H25.4978Z" fill="#2962FF"/>
<circle cx="46.6262" cy="11.151" r="11.1497" fill="#F5F5FF"/>
<circle cx="63.3506" cy="11.151" r="11.1497" fill="#F4F7FB"/>
<path d="M60.2351 13.4618L62.1986 8.13469H62.8759L64.8317 13.4618H64.1544L63.6673 12.092H61.3995L60.9048 13.4618H60.2351ZM61.5898 11.5745H63.4771L62.5334 8.94138L61.5898 11.5745Z" fill="#274779"/>
<path d="M42.7305 13.4618V8.13469H43.4763L45.3941 11.8485L47.2966 8.13469H48.05V13.4618H47.4108V9.27623L45.63 12.7008H45.1506L43.3698 9.28384V13.4618H42.7305Z" fill="#6C5278"/>
</svg>
