<svg width="16" height="13" viewBox="0 0 16 13" fill="none" xmlns="http://www.w3.org/2000/svg">
<path fill-rule="evenodd" clip-rule="evenodd" d="M14.1391 0C14.192 0 14.2438 0.00396468 14.2943 0.0115963C15.2374 0.121975 16 1.00771 16 2.12588V10.8741C16 12.07 15.1278 13 14.0952 13H1.90476C0.872231 13 0 12.07 0 10.8741V2.12588C0 1.00771 0.762567 0.121977 1.70572 0.0115967C1.75617 0.00396487 1.80796 0 1.86094 0H14.1391ZM1.37143 2.518V10.8741C1.37143 11.1649 1.59077 11.44 1.90476 11.44H14.0952C14.4092 11.44 14.6286 11.1649 14.6286 10.8741V2.518L9.69141 7.51461C8.73243 8.48514 7.26757 8.48514 6.30859 7.51461L1.37143 2.518ZM13.512 1.56H2.48804L7.22019 6.34912C7.65941 6.79363 8.34059 6.79363 8.77981 6.34912L13.512 1.56Z" fill="#212121"/>
</svg>
