<svg width="56" height="37" viewBox="0 0 56 37" fill="none" xmlns="http://www.w3.org/2000/svg">
<path d="M11.8334 33.25V24.85H13.1054L17.3174 31.174V24.85H18.5894V33.25H17.3174L13.1054 26.926V33.25H11.8334ZM23.2051 33.394C22.6371 33.394 22.1251 33.266 21.6691 33.01C21.2211 32.746 20.8651 32.382 20.6011 31.918C20.3371 31.446 20.2051 30.898 20.2051 30.274C20.2051 29.65 20.3371 29.106 20.6011 28.642C20.8731 28.17 21.2371 27.806 21.6931 27.55C22.1491 27.286 22.6571 27.154 23.2171 27.154C23.7851 27.154 24.2931 27.286 24.7411 27.55C25.1971 27.806 25.5571 28.17 25.8211 28.642C26.0931 29.106 26.2291 29.65 26.2291 30.274C26.2291 30.898 26.0931 31.446 25.8211 31.918C25.5571 32.382 25.1971 32.746 24.7411 33.01C24.2851 33.266 23.7731 33.394 23.2051 33.394ZM23.2051 32.302C23.5091 32.302 23.7891 32.226 24.0451 32.074C24.3091 31.922 24.5211 31.698 24.6811 31.402C24.8411 31.098 24.9211 30.722 24.9211 30.274C24.9211 29.826 24.8411 29.454 24.6811 29.158C24.5291 28.854 24.3211 28.626 24.0571 28.474C23.8011 28.322 23.5211 28.246 23.2171 28.246C22.9131 28.246 22.6291 28.322 22.3651 28.474C22.1091 28.626 21.9011 28.854 21.7411 29.158C21.5811 29.454 21.5011 29.826 21.5011 30.274C21.5011 30.722 21.5811 31.098 21.7411 31.402C21.9011 31.698 22.1091 31.922 22.3651 32.074C22.6211 32.226 22.9011 32.302 23.2051 32.302ZM30.0411 33.25C29.4571 33.25 28.9931 33.11 28.6491 32.83C28.3051 32.542 28.1331 32.034 28.1331 31.306V28.366H27.1131V27.298H28.1331L28.2891 25.786H29.4051V27.298H31.0851V28.366H29.4051V31.306C29.4051 31.634 29.4731 31.862 29.6091 31.99C29.7531 32.11 29.9971 32.17 30.3411 32.17H31.0251V33.25H30.0411ZM35.203 33.394C34.619 33.394 34.099 33.266 33.643 33.01C33.195 32.746 32.843 32.382 32.587 31.918C32.331 31.454 32.203 30.914 32.203 30.298C32.203 29.674 32.327 29.126 32.575 28.654C32.831 28.182 33.183 27.814 33.631 27.55C34.087 27.286 34.615 27.154 35.215 27.154C35.799 27.154 36.307 27.286 36.739 27.55C37.171 27.806 37.507 28.15 37.747 28.582C37.987 29.014 38.107 29.49 38.107 30.01C38.107 30.09 38.103 30.178 38.095 30.274C38.095 30.362 38.091 30.462 38.083 30.574H33.451C33.491 31.15 33.679 31.59 34.015 31.894C34.359 32.19 34.755 32.338 35.203 32.338C35.563 32.338 35.863 32.258 36.103 32.098C36.351 31.93 36.535 31.706 36.655 31.426H37.927C37.767 31.986 37.447 32.454 36.967 32.83C36.495 33.206 35.907 33.394 35.203 33.394ZM35.203 28.198C34.779 28.198 34.403 28.326 34.075 28.582C33.747 28.83 33.547 29.206 33.475 29.71H36.835C36.811 29.246 36.647 28.878 36.343 28.606C36.039 28.334 35.659 28.198 35.203 28.198ZM41.9776 33.394C41.2256 33.394 40.6056 33.21 40.1176 32.842C39.6296 32.474 39.3496 31.986 39.2776 31.378H40.5616C40.6256 31.65 40.7776 31.886 41.0176 32.086C41.2576 32.278 41.5736 32.374 41.9656 32.374C42.3496 32.374 42.6296 32.294 42.8056 32.134C42.9816 31.974 43.0696 31.79 43.0696 31.582C43.0696 31.278 42.9456 31.074 42.6976 30.97C42.4576 30.858 42.1216 30.758 41.6896 30.67C41.3536 30.598 41.0176 30.502 40.6816 30.382C40.3536 30.262 40.0776 30.094 39.8536 29.878C39.6376 29.654 39.5296 29.354 39.5296 28.978C39.5296 28.458 39.7296 28.026 40.1296 27.682C40.5296 27.33 41.0896 27.154 41.8096 27.154C42.4736 27.154 43.0096 27.314 43.4176 27.634C43.8336 27.954 44.0776 28.406 44.1496 28.99H42.9256C42.8856 28.734 42.7656 28.534 42.5656 28.39C42.3736 28.246 42.1136 28.174 41.7856 28.174C41.4656 28.174 41.2176 28.242 41.0416 28.378C40.8656 28.506 40.7776 28.674 40.7776 28.882C40.7776 29.09 40.8976 29.254 41.1376 29.374C41.3856 29.494 41.7096 29.602 42.1096 29.698C42.5096 29.786 42.8776 29.89 43.2136 30.01C43.5576 30.122 43.8336 30.29 44.0416 30.514C44.2496 30.738 44.3536 31.066 44.3536 31.498C44.3616 32.042 44.1496 32.494 43.7176 32.854C43.2936 33.214 42.7136 33.394 41.9776 33.394Z" fill="#212121"/>
<path d="M36.3485 1.53223V8.52218C36.3485 13.3479 32.4367 17.2596 27.6111 17.2596H20.6211V1.53223H36.3485Z" stroke="#212121" stroke-width="1.31062" stroke-linecap="round" stroke-linejoin="round"/>
<path d="M25.8637 17.2598C28.194 17.2598 29.3587 16.0951 29.3587 13.7648V10.2698H32.8537C35.1839 10.2698 36.3486 9.10512 36.3486 6.77484" stroke="#212121" stroke-width="1.31062" stroke-linecap="round" stroke-linejoin="round"/>
</svg>
