<svg width="56" height="38" viewBox="0 0 56 38" fill="none" xmlns="http://www.w3.org/2000/svg">
<path d="M35.4745 5.04297H21.4946C20.5294 5.04297 19.7471 5.82535 19.7471 6.79046V15.5279C19.7471 16.493 20.5294 17.2754 21.4946 17.2754H35.4745C36.4396 17.2754 37.222 16.493 37.222 15.5279V6.79046C37.222 5.82535 36.4396 5.04297 35.4745 5.04297Z" stroke="#212121" stroke-width="1.31062" stroke-linecap="round" stroke-linejoin="round"/>
<path d="M31.9802 17.2753V3.29534C31.9802 2.83188 31.7961 2.3874 31.4684 2.05968C31.1406 1.73196 30.6962 1.54785 30.2327 1.54785H26.7377C26.2743 1.54785 25.8298 1.73196 25.5021 2.05968C25.1743 2.3874 24.9902 2.83188 24.9902 3.29534V17.2753" stroke="#212121" stroke-width="1.31062" stroke-linecap="round" stroke-linejoin="round"/>
<path d="M14.903 34.2656V26.8976H12.419V25.8656H18.647V26.8976H16.175V34.2656H14.903ZM21.0309 34.4096C20.5269 34.4096 20.1109 34.3256 19.7829 34.1576C19.4549 33.9896 19.2109 33.7696 19.0509 33.4976C18.8909 33.2176 18.8109 32.9136 18.8109 32.5856C18.8109 32.0096 19.0349 31.5536 19.4829 31.2176C19.9309 30.8816 20.5709 30.7136 21.4029 30.7136H22.9629V30.6056C22.9629 30.1416 22.8349 29.7936 22.5789 29.5616C22.3309 29.3296 22.0069 29.2136 21.6069 29.2136C21.2549 29.2136 20.9469 29.3016 20.6829 29.4776C20.4269 29.6456 20.2709 29.8976 20.2149 30.2336H18.9429C18.9829 29.8016 19.1269 29.4336 19.3749 29.1296C19.6309 28.8176 19.9509 28.5816 20.3349 28.4216C20.7269 28.2536 21.1549 28.1696 21.6189 28.1696C22.4509 28.1696 23.0949 28.3896 23.5509 28.8296C24.0069 29.2616 24.2349 29.8536 24.2349 30.6056V34.2656H23.1309L23.0229 33.2456C22.8549 33.5736 22.6109 33.8496 22.2909 34.0736C21.9709 34.2976 21.5509 34.4096 21.0309 34.4096ZM21.2829 33.3776C21.6269 33.3776 21.9149 33.2976 22.1469 33.1376C22.3869 32.9696 22.5709 32.7496 22.6989 32.4776C22.8349 32.2056 22.9189 31.9056 22.9509 31.5776H21.5349C21.0309 31.5776 20.6709 31.6656 20.4549 31.8416C20.2469 32.0176 20.1429 32.2376 20.1429 32.5016C20.1429 32.7736 20.2429 32.9896 20.4429 33.1496C20.6509 33.3016 20.9309 33.3776 21.2829 33.3776ZM28.2687 34.4096C27.5167 34.4096 26.8967 34.2256 26.4087 33.8576C25.9207 33.4896 25.6407 33.0016 25.5687 32.3936H26.8527C26.9167 32.6656 27.0687 32.9016 27.3087 33.1016C27.5487 33.2936 27.8647 33.3896 28.2567 33.3896C28.6407 33.3896 28.9207 33.3096 29.0967 33.1496C29.2727 32.9896 29.3607 32.8056 29.3607 32.5976C29.3607 32.2936 29.2367 32.0896 28.9887 31.9856C28.7487 31.8736 28.4127 31.7736 27.9807 31.6856C27.6447 31.6136 27.3087 31.5176 26.9727 31.3976C26.6447 31.2776 26.3687 31.1096 26.1447 30.8936C25.9287 30.6696 25.8207 30.3696 25.8207 29.9936C25.8207 29.4736 26.0207 29.0416 26.4207 28.6976C26.8207 28.3456 27.3807 28.1696 28.1007 28.1696C28.7647 28.1696 29.3007 28.3296 29.7087 28.6496C30.1247 28.9696 30.3687 29.4216 30.4407 30.0056H29.2167C29.1767 29.7496 29.0567 29.5496 28.8567 29.4056C28.6647 29.2616 28.4047 29.1896 28.0767 29.1896C27.7567 29.1896 27.5087 29.2576 27.3327 29.3936C27.1567 29.5216 27.0687 29.6896 27.0687 29.8976C27.0687 30.1056 27.1887 30.2696 27.4287 30.3896C27.6767 30.5096 28.0007 30.6176 28.4007 30.7136C28.8007 30.8016 29.1687 30.9056 29.5047 31.0256C29.8487 31.1376 30.1247 31.3056 30.3327 31.5296C30.5407 31.7536 30.6447 32.0816 30.6447 32.5136C30.6527 33.0576 30.4407 33.5096 30.0087 33.8696C29.5847 34.2296 29.0047 34.4096 28.2687 34.4096ZM32.2081 34.2656V25.6256H33.4801V30.7736L35.7601 28.3136H37.2841L34.7521 31.0136L37.6561 34.2656H36.0481L33.4801 31.2176V34.2656H32.2081ZM40.876 34.4096C40.124 34.4096 39.504 34.2256 39.016 33.8576C38.528 33.4896 38.248 33.0016 38.176 32.3936H39.46C39.524 32.6656 39.676 32.9016 39.916 33.1016C40.156 33.2936 40.472 33.3896 40.864 33.3896C41.248 33.3896 41.528 33.3096 41.704 33.1496C41.88 32.9896 41.968 32.8056 41.968 32.5976C41.968 32.2936 41.844 32.0896 41.596 31.9856C41.356 31.8736 41.02 31.7736 40.588 31.6856C40.252 31.6136 39.916 31.5176 39.58 31.3976C39.252 31.2776 38.976 31.1096 38.752 30.8936C38.536 30.6696 38.428 30.3696 38.428 29.9936C38.428 29.4736 38.628 29.0416 39.028 28.6976C39.428 28.3456 39.988 28.1696 40.708 28.1696C41.372 28.1696 41.908 28.3296 42.316 28.6496C42.732 28.9696 42.976 29.4216 43.048 30.0056H41.824C41.784 29.7496 41.664 29.5496 41.464 29.4056C41.272 29.2616 41.012 29.1896 40.684 29.1896C40.364 29.1896 40.116 29.2576 39.94 29.3936C39.764 29.5216 39.676 29.6896 39.676 29.8976C39.676 30.1056 39.796 30.2696 40.036 30.3896C40.284 30.5096 40.608 30.6176 41.008 30.7136C41.408 30.8016 41.776 30.9056 42.112 31.0256C42.456 31.1376 42.732 31.3056 42.94 31.5296C43.148 31.7536 43.252 32.0816 43.252 32.5136C43.26 33.0576 43.048 33.5096 42.616 33.8696C42.192 34.2296 41.612 34.4096 40.876 34.4096Z" fill="#212121"/>
</svg>
