<svg width="19" height="18" viewBox="0 0 19 18" fill="none" xmlns="http://www.w3.org/2000/svg">
<path d="M16.4745 5.04297H2.49456C1.52945 5.04297 0.74707 5.82535 0.74707 6.79046V15.5279C0.74707 16.493 1.52945 17.2754 2.49456 17.2754H16.4745C17.4396 17.2754 18.222 16.493 18.222 15.5279V6.79046C18.222 5.82535 17.4396 5.04297 16.4745 5.04297Z" stroke="#212121" stroke-width="1.31062" stroke-linecap="round" stroke-linejoin="round"/>
<path d="M12.9802 17.2753V3.29534C12.9802 2.83188 12.7961 2.3874 12.4684 2.05968C12.1406 1.73196 11.6962 1.54785 11.2327 1.54785H7.73772C7.27426 1.54785 6.82978 1.73196 6.50206 2.05968C6.17434 2.3874 5.99023 2.83188 5.99023 3.29534V17.2753" stroke="#212121" stroke-width="1.31062" stroke-linecap="round" stroke-linejoin="round"/>
</svg>
