<?xml version="1.0" encoding="UTF-8" standalone="no"?>
<!-- Created with Inkscape (http://www.inkscape.org/) -->

<svg
   version="1.1"
   id="svg8728"
   width="800"
   height="800"
   viewBox="0 0 800 800"
   sodipodi:docname="snowboarder-publicdomainvectors.org.svg"
   inkscape:version="1.2 (dc2aedaf03, 2022-05-15)"
   xmlns:inkscape="http://www.inkscape.org/namespaces/inkscape"
   xmlns:sodipodi="http://sodipodi.sourceforge.net/DTD/sodipodi-0.dtd"
   xmlns="http://www.w3.org/2000/svg"
   xmlns:svg="http://www.w3.org/2000/svg">
  <defs
     id="defs8732">
    <clipPath
       clipPathUnits="userSpaceOnUse"
       id="clipPath8744">
      <path
         d="M 0,600 H 600 V 0 H 0 Z"
         id="path8742" />
    </clipPath>
  </defs>
  <sodipodi:namedview
     id="namedview8730"
     pagecolor="#ffffff"
     bordercolor="#000000"
     borderopacity="0.25"
     inkscape:showpageshadow="2"
     inkscape:pageopacity="0.0"
     inkscape:pagecheckerboard="0"
     inkscape:deskcolor="#d1d1d1"
     showgrid="false"
     inkscape:zoom="1.04625"
     inkscape:cx="400"
     inkscape:cy="400.4779"
     inkscape:window-width="1920"
     inkscape:window-height="1017"
     inkscape:window-x="-8"
     inkscape:window-y="-8"
     inkscape:window-maximized="1"
     inkscape:current-layer="g8736">
    <inkscape:page
       x="0"
       y="0"
       id="page8734"
       width="800"
       height="800" />
  </sodipodi:namedview>
  <g
     id="g8736"
     inkscape:groupmode="layer"
     inkscape:label="Page 1"
     transform="matrix(1.3333333,0,0,-1.3333333,0,800)">
    <g
       id="g8738">
      <g
         id="g8740"
         clip-path="url(#clipPath8744)">
        <g
           id="g8746"
           transform="translate(487.9434,533.9507)">
          <path
             d="m 0,0 c 1.231,0.118 2.063,0.934 2.824,2.072 9.859,14.675 30.716,1.825 32.443,10.95 1.491,7.899 -11.241,11.344 -17.439,11.285 -50.804,-0.465 -31.583,2.836 -52.084,-5.463 L -16.235,-6.938 C -11.583,-3.435 -6.234,-0.597 0,0"
             style="fill:#b71700;fill-opacity:1;fill-rule:nonzero;stroke:none"
             id="path8748" />
        </g>
        <g
           id="g8750"
           transform="translate(428.502,280.1387)">
          <path
             d="m 0,0 c 7.505,6.615 12.322,14.984 14.029,28.822 0.253,2.061 0.752,4.059 1.284,6.053 L -13.584,20.491 Z"
             style="fill:#a7cb55;fill-opacity:1;fill-rule:nonzero;stroke:none"
             id="path8752" />
        </g>
        <g
           id="g8754"
           transform="translate(416.3174,478.0093)">
          <path
             d="m 0,0 c 14.249,3.488 9.239,11.641 19.988,17.028 2.387,1.199 5.076,2.673 6.295,5.254 4.849,10.232 15.447,14.454 23.131,21.635 1.858,1.734 3.845,3.48 5.977,5.086 L 37.37,74.785 C 36.19,74.308 34.88,73.792 33.416,73.234 29.906,71.895 26.272,71.496 22.764,70.168 17.948,68.337 14.64,66.231 11.969,64.573 l -33.193,-76.72 C -14.103,-11.173 -20.284,-4.977 0,0"
             style="fill:#cb4500;fill-opacity:1;fill-rule:nonzero;stroke:none"
             id="path8756" />
        </g>
        <g
           id="g8758"
           transform="translate(443.8154,315.0132)">
          <path
             d="M 0,0 C 0.954,3.57 2.019,7.124 1.987,10.998 1.891,23.382 -1.868,34.964 -4.735,46.741 l -24.162,-61.125 z"
             style="fill:#c1c32f;fill-opacity:1;fill-rule:nonzero;stroke:none"
             id="path8760" />
        </g>
        <g
           id="g8762"
           transform="translate(394.5049,465.7964)">
          <path
             d="m 0,0 c 0.207,0.019 0.401,0.041 0.589,0.066 l 33.192,76.72 c -4.308,-2.675 -6.957,-4.183 -11.579,-1.494 -2.186,1.268 -5.367,2.693 -7.85,0.62 C 9.406,71.788 2.474,71.507 -2.213,66.885 -3.691,65.43 -5.297,65.082 -7.217,64.854 L -0.885,-0.09 C -0.59,-0.057 -0.295,-0.026 0,0"
             style="fill:#d03e00;fill-opacity:1;fill-rule:nonzero;stroke:none"
             id="path8764" />
        </g>
        <g
           id="g8766"
           transform="translate(414.918,300.6294)">
          <path
             d="m 0,0 24.162,61.125 c -0.488,2.005 -0.951,4.015 -1.365,6.036 -3.342,16.338 -8.105,10.657 -20.598,29.533 -1.863,2.814 -3.386,5.961 -5.691,8.336 -1.104,1.135 -2.153,2.245 -3.154,3.334 l -42.446,1.041 z"
             style="fill:#d2c622;fill-opacity:1;fill-rule:nonzero;stroke:none"
             id="path8768" />
        </g>
        <g
           id="g8770"
           transform="translate(405.2969,265.5977)">
          <path
             d="M 0,0 C 9.342,5.004 17.149,9.203 23.205,14.541 L 9.621,35.032 Z"
             style="fill:#86c06a;fill-opacity:1;fill-rule:nonzero;stroke:none"
             id="path8772" />
        </g>
        <g
           id="g8774"
           transform="translate(408.2725,408.9937)">
          <path
             d="M 0,0 C -16.503,17.944 -19.485,29.558 -25.669,32.75 L -42.446,1.041 Z"
             style="fill:#d89800;fill-opacity:1;fill-rule:nonzero;stroke:none"
             id="path8776" />
        </g>
        <g
           id="g8778"
           transform="translate(316.1729,282.957)">
          <path
             d="M 0,0 49.653,127.078 -31.98,87.804 Z"
             style="fill:#e8e22a;fill-opacity:1;fill-rule:nonzero;stroke:none"
             id="path8780" />
        </g>
        <g
           id="g8782"
           transform="translate(359.6914,88.6309)">
          <path
             d="m 0,0 c 0.659,0.744 1.342,1.598 2.063,2.629 6.052,8.648 18.238,30.494 18.929,33.443 2.055,8.799 -1.581,15.84 -6.691,22.494 L -30.054,36.389 Z"
             style="fill:#3f9d61;fill-opacity:1;fill-rule:nonzero;stroke:none"
             id="path8784" />
        </g>
        <g
           id="g8786"
           transform="translate(316.1729,282.957)">
          <path
             d="m 0,0 50.85,-41.016 c 14.588,10.989 27.458,17.864 38.274,23.657 l 9.621,35.031 z"
             style="fill:#b4e068;fill-opacity:1;fill-rule:nonzero;stroke:none"
             id="path8788" />
        </g>
        <g
           id="g8790"
           transform="translate(414.918,300.6294)">
          <path
             d="M 0,0 -49.092,109.405 -98.745,-17.672 Z"
             style="fill:#d1df35;fill-opacity:1;fill-rule:nonzero;stroke:none"
             id="path8792" />
        </g>
        <g
           id="g8794"
           transform="translate(331.0068,519.5962)">
          <path
             d="m 0,0 c -35.541,-0.754 -42.598,-29.486 -58.716,-10.602 l 1.523,-50.709 z"
             style="fill:#e94d00;fill-opacity:1;fill-rule:nonzero;stroke:none"
             id="path8796" />
        </g>
        <g
           id="g8798"
           transform="translate(373.9922,147.1973)">
          <path
             d="M 0,0 C -0.167,0.217 -0.335,0.436 -0.506,0.652 -11.65,14.855 -4.815,13.102 -10.551,28.977 L -44.354,-22.178 Z"
             style="fill:#60b66a;fill-opacity:1;fill-rule:nonzero;stroke:none"
             id="path8800" />
        </g>
        <g
           id="g8802"
           transform="translate(329.6377,125.0195)">
          <path
             d="m 0,0 33.804,51.154 c -0.531,1.467 -1.166,3.084 -1.937,4.879 -6.569,15.356 -11.855,30.85 -6.459,47.645 l -84.598,17.23 z"
             style="fill:#8ad074;fill-opacity:1;fill-rule:nonzero;stroke:none"
             id="path8804" />
        </g>
        <g
           id="g8806"
           transform="translate(374.292,462.2769)">
          <path
             d="M 0,0 C 0.526,0.211 1.08,0.413 1.618,0.642 3.012,1.23 4.577,1.694 6.061,1.7 c 4.506,0.026 8.841,1.233 13.267,1.73 l -6.332,64.944 c -3.679,-0.435 -8.511,-0.426 -15.805,-6.91 -2.775,-2.462 -18.476,7.531 -23.241,0.312 -2.745,-4.157 -6.478,-4.907 -10.995,-4.605 -2.174,0.146 -4.251,0.19 -6.24,0.148 l -57.193,-61.31 z"
             style="fill:#e66200;fill-opacity:1;fill-rule:nonzero;stroke:none"
             id="path8808" />
        </g>
        <g
           id="g8810"
           transform="translate(365.8262,410.0347)">
          <path
             d="m 0,0 16.777,31.709 c -0.003,0.001 -0.006,0.003 -0.009,0.005 -6.16,3.163 -7.375,9.2 -10.193,14.556 -2.1,3.998 -0.357,5.069 1.891,5.972 L -92.013,48.251 Z"
             style="fill:#e99500;fill-opacity:1;fill-rule:nonzero;stroke:none"
             id="path8812" />
        </g>
        <g
           id="g8814"
           transform="translate(270.4473,245.9277)">
          <path
             d="m 0,0 84.599,-17.23 c 0.195,0.609 0.404,1.22 0.628,1.834 0.864,2.365 1.296,4.99 -0.87,7.607 4.725,0.449 8.581,1.059 12.165,3.764 0.018,0.013 0.036,0.025 0.054,0.039 l -50.85,41.015 z"
             style="fill:#b5e377;fill-opacity:1;fill-rule:nonzero;stroke:none"
             id="path8816" />
        </g>
        <g
           id="g8818"
           transform="translate(323.3877,52.4531)">
          <path
             d="m 0,0 c 14.021,2.725 16.618,3.779 19.083,9.83 8.68,21.295 12.31,20.797 17.221,26.348 L 6.25,72.566 Z"
             style="fill:#3a8a5c;fill-opacity:1;fill-rule:nonzero;stroke:none"
             id="path8820" />
        </g>
        <g
           id="g8822"
           transform="translate(365.8262,410.0347)">
          <path
             d="m 0,0 -92.013,48.251 10.379,-87.524 z"
             style="fill:#f2b400;fill-opacity:1;fill-rule:nonzero;stroke:none"
             id="path8824" />
        </g>
        <g
           id="g8826"
           transform="translate(271.6016,351.6655)">
          <path
             d="m 0,0 c 7.994,-2.289 17.953,-6.412 14.704,-10.698 -2.607,-3.44 -0.165,-8.764 4.911,-10.389 5.134,-1.646 7.44,-4.324 6.649,-9.891 -0.783,-5.513 -13.186,-13.835 -26.007,-23.684 l 44.314,-14.046 -31.98,87.804 z"
             style="fill:#f0f03e;fill-opacity:1;fill-rule:nonzero;stroke:none"
             id="path8828" />
        </g>
        <g
           id="g8830"
           transform="translate(258.4111,331.6626)">
          <path
             d="m 0,0 -16.578,-25.142 10.852,-3.44 C -3.479,-20.995 -1.403,-11.52 0,0"
             style="fill:#f0f03e;fill-opacity:1;fill-rule:nonzero;stroke:none"
             id="path8832" />
        </g>
        <g
           id="g8834"
           transform="translate(270.4473,245.9277)">
          <path
             d="m 0,0 -37.377,-51.631 c 8.738,-19.629 18.321,-41.978 22.914,-57.316 l 73.653,-11.961 z"
             style="fill:#99d575;fill-opacity:1;fill-rule:nonzero;stroke:none"
             id="path8836" />
        </g>
        <g
           id="g8838"
           transform="translate(242.4209,38.7031)">
          <path
             d="m 0,0 c 2.489,-0.16 67.406,11.145 67.73,11.209 5.291,1.033 9.639,1.842 13.237,2.541 L 87.217,86.316 -4.19,8.643 C -6.523,4.129 -6.94,0.459 0,0"
             style="fill:#518d5d;fill-opacity:1;fill-rule:nonzero;stroke:none"
             id="path8840" />
        </g>
        <g
           id="g8842"
           transform="translate(255.9844,136.9805)">
          <path
             d="m 0,0 c 2.045,-6.828 3.102,-12.266 2.653,-15.453 -2.513,-17.887 9.392,-18.119 3.631,-27.088 -7.434,-11.564 -21.321,10.768 -25.319,-3.002 -7.306,-25.154 10.831,-24.588 8.134,-31.936 -1.34,-3.652 -4.823,-8.224 -6.853,-12.156 l 91.407,77.674 z"
             style="fill:#79af65;fill-opacity:1;fill-rule:nonzero;stroke:none"
             id="path8844" />
        </g>
        <g
           id="g8846"
           transform="translate(194.2646,166.5195)">
          <path
             d="M 0,0 C 0.472,-0.121 0.998,-0.174 1.591,-0.146 4.822,0.006 5.632,2.127 6.062,4.729 7.932,16.088 4.456,23.174 2.497,29.18 L -4.89,24.145 Z"
             style="fill:#c5eb6b;fill-opacity:1;fill-rule:nonzero;stroke:none"
             id="path8848" />
        </g>
        <g
           id="g8850"
           transform="translate(224.082,214.3223)">
          <path
             d="m 0,0 c 2.69,-5.988 5.782,-12.822 8.988,-20.025 l 37.377,51.63 z"
             style="fill:#c5eb6b;fill-opacity:1;fill-rule:nonzero;stroke:none"
             id="path8852" />
        </g>
        <g
           id="g8854"
           transform="translate(273.8135,458.2856)">
          <path
             d="m 0,0 -35.907,-70.974 46.286,-16.55 z"
             style="fill:#fdbb00;fill-opacity:1;fill-rule:nonzero;stroke:none"
             id="path8856" />
        </g>
        <g
           id="g8858"
           transform="translate(241.833,306.521)">
          <path
             d="m 0,0 6.919,-14.652 c 1.305,3.135 2.647,6.865 3.934,11.212 z"
             style="fill:#dff35f;fill-opacity:1;fill-rule:nonzero;stroke:none"
             id="path8860" />
        </g>
        <g
           id="g8862"
           transform="translate(271.8584,297.0039)">
          <path
             d="m 0,0 c -1.818,-1.397 -3.646,-2.824 -5.448,-4.279 -5.095,-4.11 -10.273,-6.266 -14.2,-8.18 l 18.237,-38.617 45.725,37.029 z"
             style="fill:#dff35f;fill-opacity:1;fill-rule:nonzero;stroke:none"
             id="path8864" />
        </g>
        <g
           id="g8866"
           transform="translate(250.8984,517.2622)">
          <path
             d="m 0,0 c -2.627,-0.413 -5.187,-1.18 -7.489,-2.263 -6.979,-3.288 -12.394,0.232 -12.675,7.732 -0.121,3.201 -0.953,6.376 -1.247,9.583 -0.542,5.884 -6.859,7.927 -12.379,7.49 l 11.54,-94.703 z"
             style="fill:#f94d00;fill-opacity:1;fill-rule:nonzero;stroke:none"
             id="path8868" />
        </g>
        <g
           id="g8870"
           transform="translate(273.8135,458.2856)">
          <path
             d="m 0,0 -1.523,50.709 c -0.586,0.687 -1.184,1.436 -1.796,2.252 -4.129,5.504 -12.131,7.192 -19.596,6.016 l -22.25,-72.162 z"
             style="fill:#fe6800;fill-opacity:1;fill-rule:nonzero;stroke:none"
             id="path8872" />
        </g>
        <g
           id="g8874"
           transform="translate(228.6484,445.1011)">
          <path
             d="M 0,0 9.258,-57.789 45.165,13.185 Z"
             style="fill:#ffa500;fill-opacity:1;fill-rule:nonzero;stroke:none"
             id="path8876" />
        </g>
        <g
           id="g8878"
           transform="translate(259.8818,349.0386)">
          <path
             d="M 0,0 C 0.262,5.286 0.003,5.167 5.324,4.174 6.971,3.865 9.252,3.333 11.72,2.627 l 12.591,19.096 -46.287,16.55 3.927,-80.791 16.578,25.142 C -0.818,-12.028 -0.311,-6.244 0,0"
             style="fill:#fce626;fill-opacity:1;fill-rule:nonzero;stroke:none"
             id="path8880" />
        </g>
        <g
           id="g8882"
           transform="translate(217.1084,539.8042)">
          <path
             d="m 0,0 c -1.795,-0.143 -3.507,-0.546 -4.906,-1.167 -8.969,-3.975 -17.151,2.014 -27.76,-7.079 -3.848,-3.304 -9.625,-4.416 -12.13,-8.768 -0.421,-0.729 -17.544,-25.84 -14.338,-34.965 3.116,-8.85 7.047,-17.121 14.97,-22.882 1.309,-0.949 2.544,-2.025 3.832,-3.006 l 9.318,-3.025 c 0.072,0.009 0.143,0.016 0.215,0.027 -0.017,-0.027 -0.033,-0.053 -0.052,-0.08 L 11.54,-94.703 Z"
             style="fill:#ff6500;fill-opacity:1;fill-rule:nonzero;stroke:none"
             id="path8884" />
        </g>
        <g
           id="g8886"
           transform="translate(252.2109,284.5449)">
          <path
             d="m 0,0 c -1.839,-0.898 -3.405,-1.742 -4.558,-2.709 -1.879,-1.578 -3.636,-3.92 -5.691,-5.205 -1.547,-0.973 -2.867,-1.416 -4.065,-2.932 -0.759,-0.967 -6.19,-11.609 -8.901,-8.451 -3.337,3.895 11.743,13.391 12.305,13.828 1.354,1.063 4.289,5.19 7.451,12.793 L -10.378,21.976 -67.057,3.389 c -0.375,-0.659 -0.759,-1.313 -1.157,-1.963 -6.671,-10.887 -5.043,-12.322 -4.537,-14.524 l 90.987,-25.519 z"
             style="fill:#f2f84c;fill-opacity:1;fill-rule:nonzero;stroke:none"
             id="path8888" />
        </g>
        <g
           id="g8890"
           transform="translate(179.46,271.4473)">
          <path
             d="M 0,0 C 0.193,-0.84 0.223,-1.791 -0.436,-3.424 -7.088,-19.891 -7.21,-20.83 -10.52,-22.568 c -0.59,-0.313 -1.147,-0.735 -1.664,-1.237 l 22.099,-56.978 7.387,5.035 c -1.328,4.07 -1.96,7.643 0.241,11.713 2.093,3.867 -0.583,8.547 3.401,16.242 2.895,5.576 7.897,7.801 11.777,11.65 1.095,1.09 2.494,1.573 3.282,-0.81 1.095,-3.311 4.351,-10.676 8.619,-20.172 l 46.365,31.605 z"
             style="fill:#e7f563;fill-opacity:1;fill-rule:nonzero;stroke:none"
             id="path8892" />
        </g>
        <g
           id="g8894"
           transform="translate(200.5713,394.0161)">
          <path
             d="m 0,0 c -0.879,-5.963 -0.961,-12.135 -0.075,-18.559 0.332,-2.42 1.091,-5.054 -0.92,-6.992 -2.168,-2.079 -2.697,-4.714 -2.179,-7.186 1.638,-7.804 0.947,-15.99 2.896,-23.734 l 37.613,49.767 z"
             style="fill:#ffe100;fill-opacity:1;fill-rule:nonzero;stroke:none"
             id="path8896" />
        </g>
        <g
           id="g8898"
           transform="translate(237.9063,387.312)">
          <path
             d="m 0,0 -37.613,-49.767 c 0.437,-1.739 1.006,-3.456 1.766,-5.141 2.473,-5.48 -9.498,-2.073 -9.767,-20.134 -0.129,-8.511 -2.821,-16.729 -7.138,-24.336 l 56.679,18.587 z"
             style="fill:#fff31b;fill-opacity:1;fill-rule:nonzero;stroke:none"
             id="path8900" />
        </g>
        <g
           id="g8902"
           transform="translate(228.6484,445.1011)">
          <path
             d="m 0,0 -21.201,-7.72 c -0.456,-1.753 -1.237,-3.583 3.926,-3.893 1.171,-0.066 2.87,1.004 3.385,-1.215 0.389,-1.674 0.497,-3.056 -0.584,-4.714 -6.887,-10.551 -11.845,-21.627 -13.603,-33.543 l 37.335,-6.704 z"
             style="fill:#ffb500;fill-opacity:1;fill-rule:nonzero;stroke:none"
             id="path8904" />
        </g>
        <g
           id="g8906"
           transform="translate(186.0947,458.9126)">
          <path
             d="M 0,0 -9.318,3.024 C -6.755,1.069 -3.979,-0.513 0,0"
             style="fill:#ff9b00;fill-opacity:1;fill-rule:nonzero;stroke:none"
             id="path8908" />
        </g>
        <g
           id="g8910"
           transform="translate(186.2578,458.8589)">
          <path
             d="m 0,0 c -6.288,-9.334 11.369,-17.47 17.923,-18.174 3.805,-0.412 3.65,-1.831 3.266,-3.304 l 21.202,7.72 z"
             style="fill:#ff9b00;fill-opacity:1;fill-rule:nonzero;stroke:none"
             id="path8912" />
        </g>
        <g
           id="g8914"
           transform="translate(189.375,190.6641)">
          <path
             d="m 0,0 -22.099,56.979 c -3.29,-3.196 -4.882,-9.723 -2.668,-13.018 2.695,-4.012 1.239,-6.273 -1.601,-8.77 C -43.313,20.285 -33.944,21.17 -41.976,12.387 L -42.64,6.17 Z"
             style="fill:#e9f345;fill-opacity:1;fill-rule:nonzero;stroke:none"
             id="path8916" />
        </g>
        <g
           id="g8918"
           transform="translate(146.7354,196.834)">
          <path
             d="m 0,0 25.332,-24.781 c 0.707,4.789 1.426,10.109 3.674,14.195 -0.062,-5.982 0.541,-11.928 0.089,-17.877 l 7.588,-7.422 c 3.676,2.879 3.079,12.916 4.023,25.92 3.912,-6.336 0.921,-18.832 6.823,-20.349 L 42.64,-6.17 Z"
             style="fill:#caea4e;fill-opacity:1;fill-rule:nonzero;stroke:none"
             id="path8920" />
        </g>
        <g
           id="g8922"
           transform="translate(175.5898,165.9902)">
          <path
             d="m 0,0 c -0.237,-1.852 -0.661,-4.18 1.844,-5.141 2.746,-1.046 4.647,-0.947 5.984,0.1 L 0.24,2.381 C 0.18,1.588 0.103,0.795 0,0"
             style="fill:#c8e242;fill-opacity:1;fill-rule:nonzero;stroke:none"
             id="path8924" />
        </g>
        <g
           id="g8926"
           transform="translate(144.6582,188.3301)">
          <path
             d="m 0,0 c 0.57,-0.768 1.263,-1.412 2.07,-1.861 5.497,-3.055 -1.997,-11.008 2.076,-17.703 0.999,-1.643 0.551,-4.709 2.681,-4.957 3.224,-0.377 5.859,9.648 10.858,11.435 -1.99,-10.135 -3.469,-14.006 1.044,-15.092 6.539,-1.568 7.594,4.537 8.68,11.901 L 2.077,8.504 Z"
             style="fill:#c8e242;fill-opacity:1;fill-rule:nonzero;stroke:none"
             id="path8928" />
        </g>
        <g
           id="g8930"
           transform="translate(144.3232,199.8594)">
          <path
             d="M 0,0 C -0.618,-0.832 -1.049,-1.824 -1.302,-2.896 L 2.412,-3.025 Z"
             style="fill:#fae01e;fill-opacity:1;fill-rule:nonzero;stroke:none"
             id="path8932" />
        </g>
        <g
           id="g8934"
           transform="translate(147.3994,203.0508)">
          <path
             d="m 0,0 c -0.661,-0.721 -1.437,-1.508 -2.357,-2.377 -0.265,-0.248 -0.502,-0.521 -0.719,-0.814 l 2.412,-3.026 z"
             style="fill:#ffee20;fill-opacity:1;fill-rule:nonzero;stroke:none"
             id="path8936" />
        </g>
        <g
           id="g8938"
           transform="translate(143.0215,196.9629)">
          <path
             d="m 0,0 c -0.682,-2.889 -0.07,-6.332 1.637,-8.633 l 2.077,8.504 z"
             style="fill:#dddf2f;fill-opacity:1;fill-rule:nonzero;stroke:none"
             id="path8940" />
        </g>
      </g>
    </g>
  </g>
</svg>
